<?xml version="1.0" encoding="UTF-8"?>
<svg width="560px" height="316px" viewBox="0 0 560 316" version="1.1" xmlns="http://www.w3.org/2000/svg" xmlns:xlink="http://www.w3.org/1999/xlink">
    <title>Group 6 Copy 2</title>
    <defs>
        <linearGradient x1="50%" y1="0%" x2="50%" y2="100%" id="linearGradient-1">
            <stop stop-color="#EFF6FF" offset="0%"></stop>
            <stop stop-color="#DBEEFF" offset="100%"></stop>
        </linearGradient>
        <linearGradient x1="50%" y1="0%" x2="50%" y2="100%" id="linearGradient-2">
            <stop stop-color="#E1EEFF" offset="0%"></stop>
            <stop stop-color="#C6E4FF" offset="100%"></stop>
        </linearGradient>
        <linearGradient x1="50%" y1="0%" x2="50%" y2="100%" id="linearGradient-3">
            <stop stop-color="#E9F5FF" offset="0%"></stop>
            <stop stop-color="#CEE8FF" offset="100%"></stop>
        </linearGradient>
    </defs>
    <g id="页面-1" stroke="none" stroke-width="1" fill="none" fill-rule="evenodd">
        <g id="VI品牌更换2倍" transform="translate(-375.000000, -86.000000)">
            <g id="编组" transform="translate(375.000000, 86.000000)">
                <rect id="Combined-Shape" fill="url(#linearGradient-1)" fill-rule="nonzero" x="0" y="0" width="560" height="316"></rect>
                <path d="M192.204724,136 C195.175474,136 197.91905,137.623165 199.31705,140.258628 L199.31705,140.258628 L202.322751,145.424831 C202.514976,145.738992 202.514976,146.14042 202.322751,146.472035 L202.322751,146.472035 L198.40835,153.174137 C198.19865,153.523205 197.70935,153.523205 197.49965,153.174137 L197.49965,153.174137 L193.759999,146.716382 C192.868774,145.05831 191.138748,144.011107 189.251448,144.011107 L189.251448,144.011107 L179.046045,144.011107 C177.17622,144.011107 175.446194,145.05831 174.537494,146.698929 L174.537494,146.698929 L169.522168,155.443078 C169.102768,156.228481 168.858118,157.10115 168.858118,157.991273 C168.858118,158.933756 169.085293,159.823879 169.574593,160.626735 L169.574593,160.626735 L172.073519,164.97263 L174.537494,169.248711 C175.428719,170.924236 177.158745,171.936533 179.046045,171.936533 L179.046045,171.936533 L189.251448,171.936533 C190.963998,171.936533 192.571699,171.063864 193.515349,169.650139 L193.515349,169.650139 L210.570953,140.258628 C212.003903,137.640619 214.730004,136 217.71823,136 L217.71823,136 L233.830184,136 C236.800935,136 239.54451,137.623165 240.942511,140.258628 L240.942511,140.258628 L248.788788,153.837366 C250.291638,156.350655 250.309113,159.474812 248.858688,162.005553 L248.858688,162.005553 L240.890086,175.793733 C239.47461,178.376835 236.78346,179.982547 233.830184,179.982547 L233.830184,179.982547 L217.71823,179.982547 C214.764954,179.982547 212.021378,178.341928 210.623378,175.741372 L210.623378,175.741372 L207.652627,170.610075 C207.460402,170.278461 207.460402,169.894486 207.652627,169.562872 L207.652627,169.562872 L211.549553,162.808409 C211.759253,162.459342 212.248554,162.459342 212.458254,162.808409 L212.458254,162.808409 L213.698979,164.97263 L216.162955,169.266164 C217.05418,170.94169 218.784205,171.953987 220.671506,171.953987 L220.671506,171.953987 L230.876908,171.953987 C232.729259,171.953987 234.441809,170.924236 235.333034,169.318524 L235.333034,169.318524 L240.383311,160.574375 C241.292011,158.95121 241.274536,156.978977 240.330885,155.390718 L240.330885,155.390718 L235.367984,146.786196 C234.476759,145.128124 232.746734,144.08092 230.859433,144.08092 L230.859433,144.08092 L220.654031,144.08092 C218.784205,144.08092 217.05418,145.128124 216.14548,146.768743 C214.276877,150.016993 213.092481,152.072949 211.746076,154.398855 L211.526186,154.778626 C209.273486,158.668386 206.456114,163.50672 199.2821,175.846093 C197.866625,178.394288 195.140524,180 192.222199,180 L192.222199,180 L176.110245,180 C173.156969,180 170.413393,178.359381 169.015393,175.758826 L169.015393,175.758826 L161.151641,162.127727 C159.648791,159.631892 159.613841,156.490282 161.064266,153.976993 L161.064266,153.976993 L168.980443,140.241174 C170.395918,137.640619 173.104544,136 176.09277,136 L176.09277,136 Z M250.186788,171.936533 C250.728513,171.936533 251.235288,172.233241 251.479938,172.721936 L251.479938,172.721936 L252.895414,175.217771 C253.017739,175.427211 253.105114,175.706466 253.105114,175.968267 C253.105114,176.230067 253.017739,176.474415 252.912889,176.718762 L252.912889,176.718762 L251.462463,179.232051 C251.217813,179.685839 250.745988,179.982547 250.204263,179.982547 L250.204263,179.982547 L247.250987,179.982547 C246.709262,179.982547 246.202487,179.685839 245.957837,179.197144 L245.957837,179.197144 L244.507412,176.701309 C244.385086,176.491868 244.297711,176.212614 244.297711,175.950813 C244.297711,175.723919 244.385086,175.444665 244.489937,175.235224 L244.489937,175.235224 L245.940362,172.721936 C246.185012,172.233241 246.691787,171.936533 247.233512,171.936533 L247.233512,171.936533 Z M275.403219,156.420468 C275.805144,156.420468 276.067269,156.856803 275.857569,157.205871 L275.857569,157.205871 L275.403219,157.991273 L303.275851,157.991273 C303.695251,157.991273 304.097176,158.113447 304.446676,158.305434 C304.935976,158.584689 305.320427,159.021023 305.460227,159.562079 C305.547602,159.806426 305.600027,160.068227 305.600027,160.347481 L305.600027,160.347481 L305.600027,170.557715 L305.565077,170.557715 C305.180627,175.566839 301.178851,179.563665 296.163524,179.94764 C295.901399,179.965093 295.639274,179.982547 295.377149,179.982547 L295.377149,179.982547 L292.773373,179.982547 C292.371448,179.982547 292.109323,179.546212 292.319023,179.197144 L292.319023,179.197144 L294.293699,175.793733 C294.485924,175.462118 294.835424,175.270131 295.202399,175.270131 L295.202399,175.270131 L295.377149,175.270131 C298.4178,175.270131 300.881775,172.809203 300.881775,169.772313 L300.881775,169.772313 L300.881775,162.703689 L295.254824,162.703689 L285.573672,179.458945 C285.381447,179.790559 285.031947,179.982547 284.664971,179.982547 L284.664971,179.982547 L280.733095,179.982547 C280.33117,179.982547 280.069045,179.546212 280.278745,179.197144 L280.278745,179.197144 L289.820098,162.703689 L283.948496,162.703689 L274.267344,179.458945 C274.075119,179.790559 273.725619,179.982547 273.358644,179.982547 L273.358644,179.982547 L269.426768,179.982547 C269.024843,179.982547 268.762718,179.546212 268.972418,179.197144 L268.972418,179.197144 L278.51377,162.703689 L272.677118,162.703689 L272.065493,163.750893 C271.873268,164.082507 271.523768,164.274494 271.156793,164.274494 L271.156793,164.274494 L267.224917,164.274494 C266.822992,164.274494 266.560867,163.838159 266.770567,163.489092 L266.770567,163.489092 L270.562643,156.94407 C270.754868,156.612455 271.104368,156.420468 271.471343,156.420468 L271.471343,156.420468 Z M395.945799,157.991273 C396.347724,157.991273 396.609849,158.427608 396.400149,158.776676 L396.400149,158.776676 L394.128399,162.703689 L393.219698,164.274494 L397.640874,164.274494 C398.6719,164.274494 399.528175,164.937723 399.8602,165.845299 C399.947575,166.089647 400,166.351448 400,166.630702 L400,166.630702 L399.999353,169.772313 L399.999353,169.772313 L399.982525,169.772313 L399.982525,170.557715 L399.947575,170.557715 C399.5806,175.444665 395.771049,179.354225 390.930473,179.912733 C390.546023,179.965093 390.161573,179.982547 389.759647,179.982547 L389.759647,179.982547 L385.967572,179.982547 C385.565646,179.982547 385.303521,179.546212 385.513221,179.197144 L385.513221,179.197144 L387.487897,175.793733 C387.680122,175.462118 388.029622,175.270131 388.396597,175.270131 L388.396597,175.270131 L389.759647,175.270131 C392.800298,175.270131 395.264274,172.809203 395.264274,169.772313 L395.264274,169.772313 L395.264274,168.98691 L385.932622,168.98691 C385.530696,168.98691 385.268571,168.550575 385.478271,168.201507 L385.478271,168.201507 L387.750022,164.274494 L388.658722,162.703689 L376.967944,162.703689 L367.286792,179.458945 C367.094567,179.790559 366.745067,179.982547 366.378092,179.982547 L366.378092,179.982547 L362.446216,179.982547 C362.044291,179.982547 361.782166,179.546212 361.991866,179.197144 L361.991866,179.197144 L371.533218,162.703689 L363.564616,162.703689 C363.162691,162.703689 362.900566,162.267354 363.110266,161.918286 L363.110266,161.918286 L365.084941,158.514875 C365.277166,158.183261 365.626666,157.991273 365.993642,157.991273 L365.993642,157.991273 Z M336.041484,146.995637 C336.618159,146.995637 337.089984,147.466878 337.089984,148.04284 L337.089984,148.04284 L337.089984,157.991273 L351.244738,157.991273 L351.239878,158.20682 C351.12689,160.707525 349.057935,162.703689 346.526487,162.703689 L346.526487,162.703689 L337.089984,162.703689 L337.089984,174.397461 L354.390239,174.397461 L354.385379,174.613008 C354.27239,177.113713 352.203436,179.109877 349.671988,179.109877 L349.671988,179.109877 L314.407429,179.109877 C314.005504,179.109877 313.743379,178.673542 313.953079,178.324474 L313.953079,178.324474 L315.927754,174.921063 C316.119979,174.589449 316.469479,174.397461 316.836454,174.397461 L316.836454,174.397461 L319.78973,174.397461 L319.78973,155.896866 C319.78973,155.320904 320.261555,154.849663 320.83823,154.849663 L320.83823,154.849663 L323.459481,154.849663 C324.036156,154.849663 324.507981,155.320904 324.507981,155.896866 L324.507981,155.896866 L324.507981,174.397461 L332.371733,174.397461 L332.371733,148.04284 C332.371733,147.466878 332.843558,146.995637 333.420234,146.995637 L333.420234,146.995637 Z M185.738972,153.976993 C186.280697,153.976993 186.787472,154.256248 187.032122,154.762396 L187.032122,154.762396 L188.447598,157.258231 C188.569923,157.467672 188.657298,157.746926 188.657298,158.008727 C188.657298,158.270528 188.569923,158.514875 188.465073,158.759223 L188.465073,158.759223 L187.014647,161.272511 C186.735047,161.761206 186.263222,162.023007 185.721497,162.023007 L185.721497,162.023007 L182.803171,162.023007 C182.261446,162.023007 181.754671,161.726299 181.510021,161.237604 L181.510021,161.237604 L180.059596,158.741769 C179.937271,158.532328 179.849896,158.253074 179.849896,157.991273 C179.849896,157.764379 179.937271,157.485125 180.042121,157.275684 L180.042121,157.275684 L181.492546,154.762396 C181.737196,154.273701 182.243971,153.976993 182.785696,153.976993 L182.785696,153.976993 Z M396.854499,136 C396.854499,138.600555 394.740024,140.712416 392.136248,140.712416 L392.136248,140.712416 L383.486121,140.712416 L383.486121,143.854026 L400,143.854026 C400,146.454582 397.885524,148.566442 395.281749,148.566442 L395.281749,148.566442 L394.093449,148.566442 L397.972899,155.285998 C398.1826,155.635065 397.920474,156.0714 397.518549,156.0714 L397.518549,156.0714 L393.586673,156.0714 C393.219698,156.0714 392.870198,155.879413 392.677973,155.547798 L392.677973,155.547798 L388.641247,148.566442 L383.486121,148.566442 L383.486121,155.024197 C383.486121,155.600159 383.014296,156.0714 382.437621,156.0714 L382.437621,156.0714 L379.81637,156.0714 C379.239695,156.0714 378.76787,155.600159 378.76787,155.024197 L378.76787,155.024197 L378.76787,148.566442 L373.612743,148.566442 L369.576017,155.547798 C369.383792,155.879413 369.034292,156.0714 368.667317,156.0714 L368.667317,156.0714 L364.735441,156.0714 C364.333516,156.0714 364.071391,155.635065 364.281091,155.285998 L364.281091,155.285998 L368.160542,148.566442 L363.302491,148.566442 C362.725816,148.566442 362.253991,148.0952 362.253991,147.519238 L362.253991,147.519238 L362.253991,144.90123 C362.253991,144.325268 362.725816,143.854026 363.302491,143.854026 L363.302491,143.854026 L378.76787,143.854026 L378.76787,140.712416 L366.447992,140.712416 C365.871317,140.712416 365.399491,140.241174 365.399491,139.665212 L365.399491,139.665212 L365.399491,137.047203 C365.399491,136.471242 365.871317,136 366.447992,136 L366.447992,136 Z M301.703101,136 C301.982701,136 302.244826,136.05236 302.489476,136.139627 C303.153526,136.366521 303.677776,136.907576 303.922426,137.570805 C304.009801,137.815153 304.062226,138.076954 304.062226,138.356208 L304.062226,138.356208 L304.062226,152.493455 C304.062226,152.772709 304.009801,153.03451 303.922426,153.278858 C303.695251,153.942086 303.153526,154.465688 302.489476,154.710036 C302.244826,154.797303 301.982701,154.849663 301.703101,154.849663 L301.703101,154.849663 L271.820843,154.849663 C271.541243,154.849663 271.279118,154.797303 271.034468,154.710036 C270.370418,154.483142 269.846168,153.942086 269.601518,153.278858 C269.514143,153.03451 269.461718,152.772709 269.461718,152.493455 L269.461718,152.493455 L269.461718,138.356208 C269.461718,138.076954 269.514143,137.815153 269.601518,137.570805 C269.828693,136.907576 270.370418,136.383975 271.034468,136.139627 C271.279118,136.05236 271.541243,136 271.820843,136 L271.820843,136 Z M342.577136,136 C344.272211,136 345.827487,136.890123 346.666287,138.356208 L346.666287,138.356208 L353.935889,150.92265 C354.145589,151.271718 353.883464,151.708052 353.481538,151.708052 L353.481538,151.708052 L349.549663,151.708052 C349.182687,151.708052 348.833187,151.516065 348.640962,151.184451 L348.640962,151.184451 L343.503311,142.283221 C342.944111,141.305831 341.895611,140.712416 340.77721,140.712416 L340.77721,140.712416 L328.946632,140.712416 C328.544707,140.712416 328.300057,140.276081 328.474807,139.927013 L328.474807,139.927013 L330.449483,136.523602 C330.641708,136.191987 330.991208,136 331.358183,136 L331.358183,136 Z M327.111757,136 C327.513682,136 327.775807,136.436335 327.566107,136.785403 L327.566107,136.785403 L319.248005,151.184451 C319.05578,151.516065 318.70628,151.708052 318.339305,151.708052 L318.339305,151.708052 L314.407429,151.708052 C314.005504,151.708052 313.760854,151.271718 313.953079,150.92265 L313.953079,150.92265 L322.271181,136.523602 C322.463406,136.191987 322.812906,136 323.179881,136 L323.179881,136 Z M299.343975,140.712416 L274.179969,140.712416 L274.179969,143.068624 L296.198474,143.068624 C296.198474,145.669179 294.083999,147.781039 291.480223,147.781039 L291.480223,147.781039 L274.179969,147.781039 L274.179969,150.137247 L299.343975,150.137247 L299.343975,140.712416 Z" id="形状结合" fill="#82A4CC" fill-rule="nonzero"></path>
                <polygon id="Rectangle-11" fill="url(#linearGradient-2)" points="141.076923 211.388128 240.353276 316 41.8005698 316"></polygon>
                <ellipse id="Oval" fill="url(#linearGradient-3)" cx="496.381766" cy="47.0753425" rx="26.1253561" ry="26.152968"></ellipse>
            </g>
        </g>
    </g>
</svg>