<?xml version="1.0" encoding="UTF-8"?>
<svg width="260px" height="260px" viewBox="0 0 260 260" version="1.1" xmlns="http://www.w3.org/2000/svg" xmlns:xlink="http://www.w3.org/1999/xlink">
    <title>编组 6</title>
    <defs>
        <linearGradient x1="50%" y1="0%" x2="50%" y2="100%" id="linearGradient-1">
            <stop stop-color="#EFF6FF" offset="0%"></stop>
            <stop stop-color="#DBEEFF" offset="100%"></stop>
        </linearGradient>
        <linearGradient x1="50%" y1="0%" x2="50%" y2="100%" id="linearGradient-2">
            <stop stop-color="#E1EEFF" offset="0%"></stop>
            <stop stop-color="#C6E4FF" offset="100%"></stop>
        </linearGradient>
        <linearGradient x1="50%" y1="0%" x2="50%" y2="100%" id="linearGradient-3">
            <stop stop-color="#E9F5FF" offset="0%"></stop>
            <stop stop-color="#CEE8FF" offset="100%"></stop>
        </linearGradient>
    </defs>
    <g id="页面-1" stroke="none" stroke-width="1" fill="none" fill-rule="evenodd">
        <g id="VI品牌更换2倍" transform="translate(-79.000000, -86.000000)">
            <g id="编组-6" transform="translate(79.000000, 86.000000)">
                <rect id="Combined-Shape" fill="url(#linearGradient-1)" fill-rule="nonzero" x="0" y="0" width="260" height="260"></rect>
                <polygon id="Rectangle-11" fill="url(#linearGradient-2)" points="61.3898305 198.983051 120.372881 260 2.40677966 260"></polygon>
                <circle id="Oval" fill="url(#linearGradient-3)" cx="225.288136" cy="42.7118644" r="22.3728814"></circle>
                <path d="M70.0065611,116 C72.0365741,116 73.9113508,117.106704 74.8666511,118.90361 L74.8666511,118.90361 L76.9205466,122.426021 C77.0519004,122.640222 77.0519004,122.913923 76.9205466,123.140024 L76.9205466,123.140024 L74.2457059,127.709639 C74.1024109,127.94764 73.7680558,127.94764 73.6247608,127.709639 L73.6247608,127.709639 L71.0693326,123.306624 C70.4603287,122.176121 69.2781447,121.462118 67.9884894,121.462118 L67.9884894,121.462118 L61.0147976,121.462118 C59.7370836,121.462118 58.5548995,122.176121 57.9339544,123.294724 L57.9339544,123.294724 L54.5068148,129.256644 C54.2202247,129.792146 54.0530472,130.387148 54.0530472,130.99405 C54.0530472,131.636652 54.2082835,132.243554 54.5426385,132.790956 L54.5426385,132.790956 L56.2502377,135.754066 L57.9339544,138.669576 C58.5429583,139.811979 59.7251423,140.502182 61.0147976,140.502182 L61.0147976,140.502182 L67.9884894,140.502182 C69.1587322,140.502182 70.2573274,139.90718 70.9021551,138.943276 L70.9021551,138.943276 L82.556818,118.90361 C83.5360007,117.118604 85.3988362,116 87.4407904,116 L87.4407904,116 L98.4506257,116 C100.480639,116 102.355415,117.106704 103.310716,118.90361 L103.310716,118.90361 L108.672338,128.161841 C109.699286,129.875446 109.711227,132.005553 108.720103,133.731059 L108.720103,133.731059 L103.274892,143.13209 C102.30765,144.893296 100.468697,145.9881 98.4506257,145.9881 L98.4506257,145.9881 L87.4407904,145.9881 C85.4227187,145.9881 83.547942,144.869496 82.5926417,143.09639 L82.5926417,143.09639 L80.5626287,139.597779 C80.4312749,139.371678 80.4312749,139.109877 80.5626287,138.883776 L80.5626287,138.883776 L83.2255281,134.278461 C83.3688232,134.04046 83.7031783,134.04046 83.8464733,134.278461 L83.8464733,134.278461 L84.6943022,135.754066 L86.3780189,138.681476 C86.9870228,139.823879 88.1692069,140.514082 89.4588622,140.514082 L89.4588622,140.514082 L96.4325539,140.514082 C97.6983267,140.514082 98.8685695,139.811979 99.4775734,138.717176 L99.4775734,138.717176 L102.928596,132.755256 C103.549541,131.648552 103.537599,130.303848 102.892772,129.220944 L102.892772,129.220944 L99.5014559,123.354225 C98.892452,122.223721 97.710268,121.509718 96.4206126,121.509718 L96.4206126,121.509718 L89.4469209,121.509718 C88.1692069,121.509718 86.9870228,122.223721 86.3660777,123.342324 C85.5517915,124.754685 84.9276459,125.836443 84.3436737,126.846163 L84.1777881,127.132917 C84.0402451,127.370618 83.9041699,127.605631 83.7675383,127.841447 L83.6031837,128.125034 C83.4932632,128.314646 83.3824683,128.505665 83.2697628,128.699878 L83.099142,128.993817 C81.5770443,131.615376 79.6285276,134.95449 74.8427686,143.167791 C73.8755271,144.905196 72.0126916,146 70.0185024,146 L70.0185024,146 L59.0086671,146 C56.9905954,146 55.1158187,144.881396 54.1605184,143.10829 L54.1605184,143.10829 L48.7869546,133.814359 C47.7600069,132.112654 47.7361244,129.970647 48.7272483,128.257041 L48.7272483,128.257041 L54.1366359,118.89171 C55.1038774,117.118604 56.9547716,116 58.9967259,116 L58.9967259,116 Z M109.627638,140.502182 C109.997817,140.502182 110.344114,140.704482 110.511291,141.037683 L110.511291,141.037683 L111.478533,142.739389 C111.562121,142.88219 111.621828,143.07259 111.621828,143.251091 C111.621828,143.429591 111.562121,143.596192 111.490474,143.762793 L111.490474,143.762793 L110.49935,145.476398 C110.332172,145.785799 110.009759,145.9881 109.63958,145.9881 L109.63958,145.9881 L107.621508,145.9881 C107.251329,145.9881 106.905033,145.785799 106.737855,145.452598 L106.737855,145.452598 L105.746731,143.750893 C105.663142,143.608092 105.603436,143.417691 105.603436,143.239191 C105.603436,143.08449 105.663142,142.89409 105.73479,142.751289 L105.73479,142.751289 L106.725914,141.037683 C106.893091,140.704482 107.239388,140.502182 107.609567,140.502182 L107.609567,140.502182 Z M126.858866,129.923046 C127.133515,129.923046 127.312634,130.220547 127.169339,130.458548 L127.169339,130.458548 L126.858866,130.99405 L145.905165,130.99405 C146.191755,130.99405 146.466404,131.07735 146.705229,131.208251 C147.039584,131.398651 147.302291,131.696152 147.397822,132.065054 C147.457528,132.231654 147.493352,132.410155 147.493352,132.600555 L147.493352,132.600555 L147.493352,139.562079 L147.469469,139.562079 C147.206761,142.97739 144.472215,145.702499 141.045075,145.9643 C140.865956,145.9762 140.686837,145.9881 140.507719,145.9881 L140.507719,145.9881 L138.728472,145.9881 C138.453823,145.9881 138.274704,145.690599 138.417999,145.452598 L138.417999,145.452598 L139.767361,143.13209 C139.898715,142.90599 140.13754,142.775089 140.388306,142.775089 L140.388306,142.775089 L140.507719,142.775089 C142.585497,142.775089 144.269213,141.097184 144.269213,139.026577 L144.269213,139.026577 L144.269213,134.207061 L140.42413,134.207061 L133.808676,145.631099 C133.677322,145.8572 133.438497,145.9881 133.18773,145.9881 L133.18773,145.9881 L130.500949,145.9881 C130.2263,145.9881 130.047181,145.690599 130.190476,145.452598 L130.190476,145.452598 L136.7104,134.207061 L132.698139,134.207061 L126.082685,145.631099 C125.951331,145.8572 125.712506,145.9881 125.46174,145.9881 L125.46174,145.9881 L122.774958,145.9881 C122.500309,145.9881 122.32119,145.690599 122.464485,145.452598 L122.464485,145.452598 L128.984409,134.207061 L124.996031,134.207061 L124.578087,134.921063 C124.446733,135.147164 124.207908,135.278064 123.957142,135.278064 L123.957142,135.278064 L121.27036,135.278064 C120.995711,135.278064 120.816592,134.980563 120.959887,134.742562 L120.959887,134.742562 L123.551139,130.280048 C123.682493,130.053947 123.921318,129.923046 124.172085,129.923046 L124.172085,129.923046 Z M209.229629,130.99405 C209.504278,130.99405 209.683397,131.291551 209.540102,131.529552 L209.540102,131.529552 L207.987739,134.207061 L207.366794,135.278064 L210.387931,135.278064 C211.092465,135.278064 211.677586,135.730266 211.90447,136.349068 C211.964176,136.515668 212,136.694169 212,136.88457 L212,136.88457 L212,139.026577 L212,139.026577 L211.988059,139.026577 L211.988059,139.562079 L211.964176,139.562079 C211.71341,142.89409 209.110217,145.559699 205.80249,145.9405 C205.539782,145.9762 205.277075,145.9881 205.002426,145.9881 L205.002426,145.9881 L202.411174,145.9881 C202.136525,145.9881 201.957406,145.690599 202.100701,145.452598 L202.100701,145.452598 L203.450063,143.13209 C203.581417,142.90599 203.820242,142.775089 204.071008,142.775089 L204.071008,142.775089 L205.002426,142.775089 C207.080204,142.775089 208.76392,141.097184 208.76392,139.026577 L208.76392,139.026577 L208.76392,138.491075 L202.387291,138.491075 C202.112643,138.491075 201.933524,138.193574 202.076819,137.955573 L202.076819,137.955573 L203.629182,135.278064 L204.250127,134.207061 L196.261429,134.207061 L189.645974,145.631099 C189.514621,145.8572 189.275796,145.9881 189.025029,145.9881 L189.025029,145.9881 L186.338247,145.9881 C186.063599,145.9881 185.88448,145.690599 186.027775,145.452598 L186.027775,145.452598 L192.547699,134.207061 L187.102488,134.207061 C186.827839,134.207061 186.64872,133.90956 186.792015,133.671559 L186.792015,133.671559 L188.141377,131.351051 C188.27273,131.12495 188.511555,130.99405 188.762322,130.99405 L188.762322,130.99405 Z M168.295014,123.497025 C168.689076,123.497025 169.011489,123.818326 169.011489,124.211027 L169.011489,124.211027 L169.011489,130.99405 L178.683904,130.99405 L178.678796,131.176241 C178.583859,132.864748 177.177659,134.207061 175.459766,134.207061 L175.459766,134.207061 L169.011489,134.207061 L169.011489,142.180087 L180.83333,142.180087 L180.828221,142.362278 C180.733285,144.050785 179.327085,145.393098 177.609191,145.393098 L177.609191,145.393098 L153.511743,145.393098 C153.237094,145.393098 153.057975,145.095597 153.20127,144.857596 L153.20127,144.857596 L154.550632,142.537088 C154.681986,142.310988 154.920811,142.180087 155.171577,142.180087 L155.171577,142.180087 L157.189649,142.180087 L157.189649,129.566045 C157.189649,129.173344 157.512063,128.852043 157.906124,128.852043 L157.906124,128.852043 L159.697312,128.852043 C160.091373,128.852043 160.413787,129.173344 160.413787,129.566045 L160.413787,129.566045 L160.413787,142.180087 L165.787351,142.180087 L165.787351,124.211027 C165.787351,123.818326 166.109765,123.497025 166.503826,123.497025 L166.503826,123.497025 Z M65.5882975,128.257041 C65.9584764,128.257041 66.3047727,128.447441 66.4719502,128.792543 L66.4719502,128.792543 L67.4391917,130.494248 C67.5227805,130.637049 67.5824868,130.827449 67.5824868,131.00595 C67.5824868,131.184451 67.5227805,131.351051 67.451133,131.517652 L67.451133,131.517652 L66.460009,133.231257 C66.2689489,133.564459 65.9465351,133.742959 65.5763563,133.742959 L65.5763563,133.742959 L63.582167,133.742959 C63.2119882,133.742959 62.8656918,133.540658 62.6985143,133.207457 L62.6985143,133.207457 L61.7073903,131.505752 C61.6238015,131.362951 61.5640953,131.172551 61.5640953,130.99405 C61.5640953,130.839349 61.6238015,130.648949 61.6954491,130.506148 L61.6954491,130.506148 L62.6865731,128.792543 C62.8537506,128.459342 63.2000469,128.257041 63.5702258,128.257041 L63.5702258,128.257041 Z M209.850574,116 C209.850574,117.773106 208.405683,119.213011 206.626436,119.213011 L206.626436,119.213011 L200.715516,119.213011 L200.715516,121.355018 L212,121.355018 C212,123.128124 210.555108,124.568029 208.775862,124.568029 L208.775862,124.568029 L207.963857,124.568029 L210.614815,129.149544 C210.75811,129.387545 210.578991,129.685046 210.304342,129.685046 L210.304342,129.685046 L207.61756,129.685046 C207.366794,129.685046 207.127969,129.554145 206.996615,129.328044 L206.996615,129.328044 L204.238186,124.568029 L200.715516,124.568029 L200.715516,128.971043 C200.715516,129.363745 200.393102,129.685046 199.999041,129.685046 L199.999041,129.685046 L198.207853,129.685046 C197.813791,129.685046 197.491378,129.363745 197.491378,128.971043 L197.491378,128.971043 L197.491378,124.568029 L193.968708,124.568029 L191.210279,129.328044 C191.078925,129.554145 190.8401,129.685046 190.589333,129.685046 L190.589333,129.685046 L187.902552,129.685046 C187.627903,129.685046 187.448784,129.387545 187.592079,129.149544 L187.592079,129.149544 L190.243037,124.568029 L186.923369,124.568029 C186.529307,124.568029 186.206894,124.246727 186.206894,123.854026 L186.206894,123.854026 L186.206894,122.06902 C186.206894,121.676319 186.529307,121.355018 186.923369,121.355018 L186.923369,121.355018 L197.491378,121.355018 L197.491378,119.213011 L189.072794,119.213011 C188.678733,119.213011 188.356319,118.89171 188.356319,118.499008 L188.356319,118.499008 L188.356319,116.714002 C188.356319,116.321301 188.678733,116 189.072794,116 L189.072794,116 Z M144.830452,116 C145.021512,116 145.200631,116.0357 145.367809,116.0952 C145.821576,116.249901 146.179814,116.618802 146.346991,117.071004 C146.406698,117.237604 146.442521,117.416105 146.442521,117.606505 L146.442521,117.606505 L146.442521,127.245537 C146.442521,127.435938 146.406698,127.614439 146.346991,127.781039 C146.191755,128.233241 145.821576,128.590242 145.367809,128.756843 C145.200631,128.816343 145.021512,128.852043 144.830452,128.852043 L144.830452,128.852043 L124.41091,128.852043 C124.21985,128.852043 124.040731,128.816343 123.873553,128.756843 C123.419786,128.602142 123.061548,128.233241 122.89437,127.781039 C122.834664,127.614439 122.79884,127.435938 122.79884,127.245537 L122.79884,127.245537 L122.79884,117.606505 C122.79884,117.416105 122.834664,117.237604 122.89437,117.071004 C123.049607,116.618802 123.419786,116.261801 123.873553,116.0952 C124.040731,116.0357 124.21985,116 124.41091,116 L124.41091,116 Z M172.761043,116 C173.919344,116 174.982116,116.606902 175.555296,117.606505 L175.555296,117.606505 L180.522857,126.174534 C180.666152,126.412535 180.487033,126.710036 180.212385,126.710036 L180.212385,126.710036 L177.525603,126.710036 C177.274836,126.710036 177.036011,126.579135 176.904658,126.353035 L176.904658,126.353035 L173.393929,120.284014 C173.011809,119.617612 172.295334,119.213011 171.531094,119.213011 L171.531094,119.213011 L163.446865,119.213011 C163.172217,119.213011 163.005039,118.91551 163.124452,118.677509 L163.124452,118.677509 L164.473813,116.357001 C164.605167,116.1309 164.843992,116 165.094758,116 L165.094758,116 Z M162.193034,116 C162.467683,116 162.646802,116.297501 162.503507,116.535502 L162.503507,116.535502 L156.81947,126.353035 C156.688116,126.579135 156.449291,126.710036 156.198525,126.710036 L156.198525,126.710036 L153.511743,126.710036 C153.237094,126.710036 153.069917,126.412535 153.20127,126.174534 L153.20127,126.174534 L158.885307,116.357001 C159.016661,116.1309 159.255486,116 159.506252,116 L159.506252,116 Z M143.218383,119.213011 L126.022979,119.213011 L126.022979,120.819516 L141.068957,120.819516 C141.068957,122.592622 139.624066,124.032527 137.844819,124.032527 L137.844819,124.032527 L126.022979,124.032527 L126.022979,125.639032 L143.218383,125.639032 L143.218383,119.213011 Z" id="形状结合" fill="#82A4CC" fill-rule="nonzero"></path>
            </g>
        </g>
    </g>
</svg>